<svg xmlns="http://www.w3.org/2000/svg" width="100%" height="100%" viewBox="0 0 24 24" xmlns:svg="http://www.w3.org/2000/svg" xmlns:xlink="http://www.w3.org/1999/xlink"><rect id="svgEditorBackground" x="0" y="0" width="24" height="24" style="fill: none; stroke: none;"/>
    <path d="M0 0h24v24H0z" fill="none"/>
    <path d="M16,11c1.6599998474121094,0,2.989999771118164,-1.3400001525878906,2.989999771118164,-3s-1.3299999237060547,-3,-2.989999771118164,-3c-1.6599998474121094,0,-3,1.3400001525878906,-3,3s1.3400001525878906,3,3,3ZM8,11c1.6599998474121094,0,2.989999771118164,-1.3400001525878906,2.989999771118164,-3s-1.3299999237060547,-3,-2.989999771118164,-3c-1.6599998474121094,0,-3,1.3400001525878906,-3,3s1.3400001525878906,3,3,3ZM8,13c-2.3299999237060547,0,-7,1.1700000762939453,-7,3.5v2.5h14v-2.5c0,-2.3299999237060547,-4.670000076293945,-3.5,-7,-3.5ZM16,13c-0.28999996185302734,0,-0.619999885559082,0.020000457763671875,-0.9700002670288086,0.05000019073486328c1.1600008010864258,0.8400001525878906,1.9700002670288086,1.9700002670288086,1.9700002670288086,3.4499998092651367v2.5h6v-2.5c0,-2.3299999237060547,-4.670000076293945,-3.5,-7,-3.5Z" fill="#FAFAFA"/>
</svg>