<svg xmlns="http://www.w3.org/2000/svg" width="100%" height="100%" viewBox="0 0 24 24" xmlns:svg="http://www.w3.org/2000/svg" xmlns:xlink="http://www.w3.org/1999/xlink"><rect id="svgEditorBackground" x="0" y="0" width="24" height="24" style="fill: none; stroke: none;"/>
    <path d="M19,8h-14c-1.6600000858306885,0,-3,1.3400001525878906,-3,3v6h4v4h12v-4h4v-6c0,-1.6599998474121094,-1.3400001525878906,-3,-3,-3ZM16,19h-8v-5h8v5ZM19,12c-0.5499992370605469,0,-1,-0.4499998092651367,-1,-1s0.4500007629394531,-1,1,-1s1,0.4499998092651367,1,1s-0.4500007629394531,1,-1,1ZM18,3h-12v4h12v-4Z" fill="#FAFAFA"/>
    <path d="M0 0h24v24H0z" fill="none"/>
</svg>