<svg xmlns="http://www.w3.org/2000/svg" width="100%" height="100%" viewBox="0 0 24 24" xmlns:svg="http://www.w3.org/2000/svg" xmlns:xlink="http://www.w3.org/1999/xlink"><rect id="svgEditorBackground" x="0" y="0" width="24" height="24" style="fill: none; stroke: none;"/>
    <path d="M0 0h24v24h-24z" fill="none"/>
    <path d="M12,10c-1.1000003814697266,0,-2,0.8999996185302734,-2,2s0.8999996185302734,2,2,2s2,-0.8999996185302734,2,-2s-0.8999996185302734,-2,-2,-2ZM19,3h-14c-1.1100001335144043,0,-2,0.9000000953674316,-2,2v14c0,1.1000003814697266,0.8899998664855957,2,2,2h14c1.1100006103515625,0,2,-0.8999996185302734,2,-2v-14c0,-1.0999999046325684,-0.8899993896484375,-2,-2,-2ZM17.25,12c0,0.22999954223632812,-0.020000457763671875,0.46000003814697266,-0.049999237060546875,0.6800003051757812l1.4799995422363281,1.1599998474121094c0.12999916076660156,0.1099996566772461,0.1700000762939453,0.3000001907348633,0.07999992370605469,0.4499998092651367l-1.3999996185302734,2.419999122619629c-0.09000015258789062,0.14999961853027344,-0.2700004577636719,0.20999908447265625,-0.43000030517578125,0.14999961853027344l-1.739999771118164,-0.7000007629394531c-0.3599996566772461,0.2800006866455078,-0.7600002288818359,0.5100002288818359,-1.1800003051757812,0.6900005340576172l-0.26000022888183594,1.8500003814697266c-0.029999732971191406,0.1700000762939453,-0.18000030517578125,0.2999992370605469,-0.35000038146972656,0.2999992370605469h-2.8000001907348633c-0.1700000762939453,0,-0.31999969482421875,-0.12999916076660156,-0.35000038146972656,-0.29000091552734375l-0.26000022888183594,-1.8500003814697266c-0.43000030517578125,-0.18000030517578125,-0.8199996948242188,-0.4099998474121094,-1.1800003051757812,-0.6900005340576172l-1.739999771118164,0.7000007629394531c-0.15999984741210938,0.05999946594238281,-0.3400001525878906,0,-0.42999982833862305,-0.14999961853027344l-1.4000000953674316,-2.4200000762939453c-0.09000015258789062,-0.14999961853027344,-0.05000019073486328,-0.3400001525878906,0.07999992370605469,-0.4499998092651367l1.4800000190734863,-1.1599998474121094c-0.03000020980834961,-0.22999954223632812,-0.05000019073486328,-0.46000003814697266,-0.05000019073486328,-0.6899995803833008c0,-0.22999954223632812,0.019999980926513672,-0.46000003814697266,0.05000019073486328,-0.6800003051757812l-1.4800000190734863,-1.1599998474121094c-0.13000011444091797,-0.1099996566772461,-0.1700000762939453,-0.3000001907348633,-0.07999992370605469,-0.4499998092651367l1.4000000953674316,-2.4200000762939453c0.09000015258789062,-0.15000009536743164,0.26999998092651367,-0.21000003814697266,0.42999982833862305,-0.15000009536743164l1.739999771118164,0.6999998092651367c0.3599996566772461,-0.2800002098083496,0.7600002288818359,-0.5099997520446777,1.1800003051757812,-0.690000057220459l0.26000022888183594,-1.8499999046325684c0.029999732971191406,-0.1700000762939453,0.18000030517578125,-0.3000001907348633,0.35000038146972656,-0.3000001907348633h2.8000001907348633c0.1700000762939453,0,0.31999969482421875,0.13000011444091797,0.35000038146972656,0.28999996185302734l0.26000022888183594,1.8499999046325684c0.43000030517578125,0.17999982833862305,0.8199996948242188,0.4099998474121094,1.1800003051757812,0.690000057220459l1.739999771118164,-0.6999998092651367c0.15999984741210938,-0.059999942779541016,0.3400001525878906,0,0.43000030517578125,0.15000009536743164l1.3999996185302734,2.4200000762939453c0.09000015258789062,0.14999961853027344,0.049999237060546875,0.3400001525878906,-0.07999992370605469,0.4499998092651367l-1.4799995422363281,1.1599998474121094c0.030000686645507812,0.22999954223632812,0.049999237060546875,0.46000003814697266,0.049999237060546875,0.6900005340576172Z" fill="#FAFAFA"/>
</svg>