<svg xmlns="http://www.w3.org/2000/svg" width="100%" height="100%" viewBox="0 0 24 24" xmlns:svg="http://www.w3.org/2000/svg" xmlns:xlink="http://www.w3.org/1999/xlink"><rect id="svgEditorBackground" x="0" y="0" width="24" height="24" style="fill: none; stroke: none;"/>
    <path d="M0 0h24v24H0z" fill="none"/>
    <path d="M4,6h-2v14c0,1.1000003814697266,0.9000000953674316,2,2,2h14v-2h-14v-14ZM20,2h-12c-1.0999999046325684,0,-2,0.9000000953674316,-2,2v12c0,1.1000003814697266,0.9000000953674316,2,2,2h12c1.1000003814697266,0,2,-0.8999996185302734,2,-2v-12c0,-1.0999999046325684,-0.8999996185302734,-2,-2,-2ZM19,11h-10v-2h10v2ZM15,15h-6v-2h6v2ZM19,7h-10v-2h10v2Z" fill="#FAFAFA"/>
</svg>