<svg xmlns="http://www.w3.org/2000/svg" width="100%" height="100%" viewBox="0 0 24 24" xmlns:svg="http://www.w3.org/2000/svg" xmlns:xlink="http://www.w3.org/1999/xlink"><rect id="svgEditorBackground" x="0" y="0" width="24" height="24" style="fill: none; stroke: none;"/>
    <path d="M3,5v14c0,1.1000003814697266,0.8899998664855957,2,2,2h14c1.1000003814697266,0,2,-0.8999996185302734,2,-2v-14c0,-1.0999999046325684,-0.8999996185302734,-2,-2,-2h-14c-1.1100001335144043,0,-2,0.9000000953674316,-2,2ZM15,9c0,1.6599998474121094,-1.3400001525878906,3,-3,3s-3,-1.3400001525878906,-3,-3s1.3400001525878906,-3,3,-3s3,1.3400001525878906,3,3ZM6,17c0,-2,4,-3.1000003814697266,6,-3.1000003814697266s6,1.1000003814697266,6,3.1000003814697266v1h-12v-1Z" fill="#FAFAFA"/>
    <path d="M0 0h24v24h-24z" fill="none"/>
</svg>